<svg width="36" height="36" viewBox="0 0 36 36" fill="none" xmlns="http://www.w3.org/2000/svg">
<path d="M20.1149 18L29.5649 8.565C29.8474 8.28255 30.006 7.89946 30.006 7.5C30.006 7.10055 29.8474 6.71746 29.5649 6.435C29.2825 6.15255 28.8994 5.99387 28.4999 5.99387C28.1005 5.99387 27.7174 6.15255 27.4349 6.435L17.9999 15.885L8.56491 6.435C8.28245 6.15255 7.89936 5.99387 7.49991 5.99387C7.10046 5.99387 6.71736 6.15255 6.43491 6.435C6.15245 6.71746 5.99377 7.10055 5.99377 7.5C5.99377 7.89946 6.15245 8.28255 6.43491 8.565L15.8849 18L6.43491 27.435C6.29432 27.5744 6.18272 27.7403 6.10657 27.9231C6.03042 28.1059 5.99121 28.302 5.99121 28.5C5.99121 28.698 6.03042 28.8941 6.10657 29.0769C6.18272 29.2597 6.29432 29.4256 6.43491 29.565C6.57435 29.7056 6.74025 29.8172 6.92304 29.8933C7.10583 29.9695 7.30189 30.0087 7.49991 30.0087C7.69793 30.0087 7.89398 29.9695 8.07677 29.8933C8.25956 29.8172 8.42546 29.7056 8.56491 29.565L17.9999 20.115L27.4349 29.565C27.5744 29.7056 27.7403 29.8172 27.923 29.8933C28.1058 29.9695 28.3019 30.0087 28.4999 30.0087C28.6979 30.0087 28.894 29.9695 29.0768 29.8933C29.2596 29.8172 29.4255 29.7056 29.5649 29.565C29.7055 29.4256 29.8171 29.2597 29.8932 29.0769C29.9694 28.8941 30.0086 28.698 30.0086 28.5C30.0086 28.302 29.9694 28.1059 29.8932 27.9231C29.8171 27.7403 29.7055 27.5744 29.5649 27.435L20.1149 18Z" fill="#141414"/>
</svg>
