<svg width="24" height="24" viewBox="0 0 24 24" fill="none" xmlns="http://www.w3.org/2000/svg">
<g clip-path="url(#clip0_1604_7)">
<mask id="mask0_1604_7" style="mask-type:luminance" maskUnits="userSpaceOnUse" x="-1" y="0" width="25" height="25">
<path d="M-0.00390625 0H23.9984V24.0023H0.00185929L-0.00390625 0Z" fill="white"/>
</mask>
<g mask="url(#mask0_1604_7)">
<path fill-rule="evenodd" clip-rule="evenodd" d="M-6 0H30.0352V24.0023H-6V0Z" fill="#FF0000"/>
<path fill-rule="evenodd" clip-rule="evenodd" d="M4.94327 12.2404C5.58325 11.4621 6.90934 12.2231 7.99328 11.6639C6.70755 11.733 6.00991 11.0469 4.99516 11.145C6.0445 10.4992 6.93817 11.3525 8.11436 11.0066C6.55764 10.8797 6.62683 10.1821 5.21425 10.0841C6.47116 9.54787 7.08808 10.6376 8.32192 10.3897C6.86898 10.0552 6.67872 9.20194 5.60055 9.01744C7.17456 8.78105 7.07078 9.70931 8.61597 9.82462C7.04772 9.15581 7.46284 8.56772 6.14828 8.06034C7.61852 8.02575 7.5205 9.0405 9.00227 9.30572C7.73383 8.49853 7.8895 7.76053 6.84016 7.18397C8.08553 7.20703 8.20661 8.48123 9.47505 8.8733C8.34498 7.97962 8.63903 7.21856 7.66464 6.41714C8.89848 6.70542 8.71975 7.80666 10.0055 8.5043C9.05416 7.44919 9.41739 6.68812 8.58714 5.81752C9.77486 6.20381 9.32514 7.24739 10.559 8.23908C9.84981 7.07442 10.288 6.33066 9.59036 5.34473C10.6974 5.9213 10.1612 6.98217 11.1874 8.04305C10.7031 6.84956 11.1874 6.1058 10.6916 5.04492C11.6372 5.75409 11.0779 6.88992 11.839 7.97962C11.5622 6.48056 12.208 6.23264 12.0062 4.92384C12.7211 5.80598 11.9197 6.68812 12.4674 7.97962C12.4097 6.50939 13.1881 6.16345 13.0497 4.9815C13.7647 6.04237 12.6519 6.96487 13.1189 8.1007C13.2342 6.69966 14.1567 6.34219 14.174 5.25248C14.7333 6.24994 13.511 6.97064 13.7128 8.29673C14.1106 6.83226 15.0908 6.65353 15.2118 5.66761C15.5462 6.82073 14.2086 7.3627 14.2893 8.64267C14.6872 7.34541 15.9095 7.18973 16.1632 6.23264C16.3131 7.45495 15.1081 7.67405 14.7737 9.0232C15.4079 7.92773 16.5149 7.82972 17.0107 6.95911C16.9704 8.16989 15.6097 8.32556 15.1945 9.46139C15.9787 8.49853 16.9588 8.66573 17.743 7.81242C17.6622 8.90789 16.2785 8.84447 15.5405 9.97453C16.3938 9.19041 17.6738 9.4268 18.3253 8.75222C18.2907 9.71508 16.5956 9.64589 15.7884 10.505C16.7801 9.96877 18.0312 10.2859 18.7577 9.7785C18.6193 10.626 16.832 10.4358 15.9671 11.0931C17.1491 10.7644 18.0601 11.266 19.0229 10.9028C18.5559 11.7273 16.93 11.2084 16.0652 11.7446C17.0914 11.5716 18.1811 12.1885 19.1152 11.9925C18.8096 12.7017 17.028 11.9464 16.0594 12.3961C17.2125 12.3788 17.962 13.1168 19.0229 13.0649C18.4464 13.7107 16.8781 12.8228 15.9671 12.9727C17.0799 13.2033 17.9275 14.1258 18.775 14.1719C18.0831 14.7023 16.7859 13.4916 15.7307 13.6472C16.8147 13.9355 17.7257 15.1694 18.3483 15.1982C17.6795 15.6594 16.3534 14.1431 15.4482 14.195C16.5437 14.6966 17.0511 15.9535 17.7775 16.1322C16.8839 16.4205 16.0017 14.7658 15.0389 14.7081C16.1516 15.4115 16.2151 16.4839 17.0741 16.9567C16.1747 17.1873 15.529 15.3135 14.5776 15.1578C15.4944 15.8266 15.627 17.2623 16.2381 17.7178C15.3156 17.7639 14.987 15.8093 14.0472 15.5268C14.8544 16.2014 14.6583 17.6601 15.281 18.2886C14.3297 18.0925 14.4508 16.3859 13.4533 15.8093C14.1683 16.7203 13.7993 18.006 14.272 18.7325C13.338 18.3577 13.7474 16.8299 12.8537 15.965C13.338 16.9336 12.8191 18.0579 13.1996 18.992C12.3521 18.5768 12.9229 16.7722 12.2714 16.0515C12.5712 17.17 12.0177 18.0925 12.2425 19.09C11.3719 18.081 12.3752 17.072 11.6199 16.0342C11.8159 17.2219 10.9914 18.0406 11.124 19.0323C10.4321 18.2251 11.493 16.9279 10.9568 15.9131C11.0721 17.072 10.0055 18.0868 10.0804 18.819C9.52117 17.885 10.7031 16.778 10.386 15.7113C10.3168 16.8183 9.24442 17.418 9.04262 18.4212C8.67939 17.3142 9.95936 16.5127 9.84981 15.423C9.48081 16.4609 8.443 16.876 8.074 17.8792C7.77419 16.7722 9.29055 16.1841 9.33091 15.0195C8.86389 16.1149 7.61852 16.3513 7.20916 17.1873C7.05348 16.0919 8.7947 15.596 8.85813 14.5524C8.29886 15.5557 6.93817 15.5902 6.46539 16.3917C6.3962 15.2962 8.22967 15.1578 8.51795 14.0105C7.95869 14.8638 6.46539 14.76 5.84847 15.4519C5.94648 14.4314 7.92409 14.3679 8.2412 13.457C7.5032 14.1661 6.13675 13.8721 5.35839 14.4371C5.79081 13.4339 7.65311 13.6472 8.06823 12.9208C7.24952 13.3532 5.79081 12.9381 5.07011 13.3647C5.72739 12.4192 7.17456 12.9842 7.99328 12.3269C6.66142 12.5229 5.86 11.9925 4.9375 12.2404H4.94327Z" fill="#FFFF00"/>
<path fill-rule="evenodd" clip-rule="evenodd" d="M16.6817 12.004C16.7037 12.6285 16.5997 13.2509 16.376 13.8343C16.1522 14.4176 15.8132 14.9499 15.3792 15.3994C14.9453 15.849 14.4252 16.2065 13.8501 16.4506C13.275 16.6948 12.6566 16.8207 12.0318 16.8207C11.407 16.8207 10.7886 16.6948 10.2134 16.4506C9.63831 16.2065 9.11826 15.849 8.6843 15.3994C8.25034 14.9499 7.91136 14.4176 7.68758 13.8343C7.4638 13.2509 7.3598 12.6285 7.38179 12.004C7.42422 10.7991 7.93271 9.65772 8.80011 8.82033C9.66752 7.98294 10.8261 7.51494 12.0318 7.51494C13.2374 7.51494 14.396 7.98294 15.2634 8.82033C16.1308 9.65772 16.6393 10.7991 16.6817 12.004Z" fill="#FFFF00"/>
<path fill-rule="evenodd" clip-rule="evenodd" d="M16.0824 12.0156C16.0824 12.5463 15.9779 13.0719 15.7748 13.5623C15.5717 14.0526 15.274 14.4982 14.8986 14.8735C14.5233 15.2488 14.0778 15.5465 13.5874 15.7496C13.0971 15.9527 12.5715 16.0573 12.0407 16.0573C11.51 16.0573 10.9844 15.9527 10.494 15.7496C10.0037 15.5465 9.55812 15.2488 9.18281 14.8735C8.8075 14.4982 8.50979 14.0526 8.30668 13.5623C8.10357 13.0719 7.99902 12.5463 7.99902 12.0156C7.99902 10.9429 8.42515 9.91412 9.18366 9.15561C9.94216 8.3971 10.9709 7.97098 12.0436 7.97098C13.1163 7.97098 14.1451 8.3971 14.9036 9.15561C15.6621 9.91412 16.0882 10.9429 16.0882 12.0156H16.0824Z" fill="#FF0000"/>
<path fill-rule="evenodd" clip-rule="evenodd" d="M15.5233 12.0213C15.5233 12.9426 15.1573 13.8262 14.5058 14.4777C13.8544 15.1291 12.9708 15.4951 12.0495 15.4951C11.1282 15.4951 10.2446 15.1291 9.59313 14.4777C8.94167 13.8262 8.57568 12.9426 8.57568 12.0213C8.57568 11.1 8.94167 10.2164 9.59313 9.56499C10.2446 8.91353 11.1282 8.54754 12.0495 8.54754C12.9708 8.54754 13.8544 8.91353 14.5058 9.56499C15.1573 10.2164 15.5233 11.1 15.5233 12.0213Z" fill="#FFFF00"/>
<path fill-rule="evenodd" clip-rule="evenodd" d="M9.09453 9.74391C10.0574 9.72661 11.2509 9.81309 12.0408 10.4473C12.8869 9.9177 13.8835 9.68069 14.8775 9.77274L15.3964 10.7183C14.6468 10.6433 13.9146 10.7471 13.0497 11.0988C13.5754 11.4866 13.998 11.9974 14.2804 12.5865C14.5629 13.1755 14.6966 13.8248 14.6699 14.4775C14.543 14.6389 14.347 14.8119 14.2202 14.9676C14.4047 13.6357 13.7013 12.1424 12.675 11.3583C13.5052 12.5633 14.0011 13.6415 13.8627 15.1348L13.3899 15.4288C13.609 14.1143 13.3034 12.5748 12.329 11.6812C12.7013 12.2315 12.9612 12.8499 13.0938 13.501C13.2263 14.152 13.229 14.8229 13.1016 15.4749C12.9517 15.5211 12.7211 15.6479 12.5654 15.694C12.7494 15.0784 12.7992 14.4305 12.7117 13.794C12.6242 13.1575 12.4013 12.5472 12.0581 12.004C11.7213 12.5435 11.5034 13.1486 11.4189 13.7789C11.3343 14.4092 11.3852 15.0503 11.568 15.6594L11.0721 15.5153C10.8069 14.1027 11.1759 12.5172 11.8159 11.6869C11.1644 12.0675 10.5475 13.6876 10.7204 15.3423L10.2822 15.1405C10.0689 13.9067 10.6282 12.2981 11.4354 11.3698C10.5244 11.9464 9.78064 13.3532 9.91325 14.8695C9.77487 14.7485 9.64227 14.685 9.50389 14.564C9.34245 13.2379 10.1093 11.906 11.003 11.1046C10.2644 10.7918 9.46199 10.6594 8.66211 10.7183C8.80625 10.4127 8.95039 10.0553 9.09453 9.74967V9.74391Z" fill="#FF0000"/>
</g>
</g>
<defs>
<clipPath id="clip0_1604_7">
<rect width="24" height="24" rx="6" fill="white"/>
</clipPath>
</defs>
</svg>
